<svg width="153" height="48" viewBox="0 0 153 48" fill="none" xmlns="http://www.w3.org/2000/svg">
<mask id="mask0_4_71" style="mask-type:luminance" maskUnits="userSpaceOnUse" x="2" y="2" width="44" height="44">
<path d="M24 44C35.046 44 44 35.046 44 24C44 12.954 35.046 4 24 4C12.954 4 4 12.954 4 24C4 35.046 12.954 44 24 44Z" fill="white" stroke="white" stroke-width="4" stroke-linejoin="round"/>
<path d="M24 18C24.7956 18 25.5587 17.6839 26.1213 17.1213C26.6839 16.5587 27 15.7956 27 15C27 14.2044 26.6839 13.4413 26.1213 12.8787C25.5587 12.3161 24.7956 12 24 12C23.2044 12 22.4413 12.3161 21.8787 12.8787C21.3161 13.4413 21 14.2044 21 15C21 15.7956 21.3161 16.5587 21.8787 17.1213C22.4413 17.6839 23.2044 18 24 18ZM24 36C24.7956 36 25.5587 35.6839 26.1213 35.1213C26.6839 34.5587 27 33.7956 27 33C27 32.2044 26.6839 31.4413 26.1213 30.8787C25.5587 30.3161 24.7956 30 24 30C23.2044 30 22.4413 30.3161 21.8787 30.8787C21.3161 31.4413 21 32.2044 21 33C21 33.7956 21.3161 34.5587 21.8787 35.1213C22.4413 35.6839 23.2044 36 24 36ZM15 27C15.7956 27 16.5587 26.6839 17.1213 26.1213C17.6839 25.5587 18 24.7956 18 24C18 23.2044 17.6839 22.4413 17.1213 21.8787C16.5587 21.3161 15.7956 21 15 21C14.2044 21 13.4413 21.3161 12.8787 21.8787C12.3161 22.4413 12 23.2044 12 24C12 24.7956 12.3161 25.5587 12.8787 26.1213C13.4413 26.6839 14.2044 27 15 27ZM33 27C33.7956 27 34.5587 26.6839 35.1213 26.1213C35.6839 25.5587 36 24.7956 36 24C36 23.2044 35.6839 22.4413 35.1213 21.8787C34.5587 21.3161 33.7956 21 33 21C32.2044 21 31.4413 21.3161 30.8787 21.8787C30.3161 22.4413 30 23.2044 30 24C30 24.7956 30.3161 25.5587 30.8787 26.1213C31.4413 26.6839 32.2044 27 33 27Z" fill="black" stroke="black" stroke-width="4" stroke-linejoin="round"/>
<path d="M24 44H44" stroke="white" stroke-width="4" stroke-linecap="round"/>
</mask>
<g mask="url(#mask0_4_71)">
<path d="M0 0H48V48H0V0Z" fill="#D62D30"/>
</g>
<path d="M64.528 17.88H74.544V12.6H64.528V17.88ZM64.528 26.584H74.224V21.688H64.528V26.584ZM60.304 12.6V35H66.256V12.6H60.304ZM77.5948 14.936C77.5948 15.768 77.8934 16.4507 78.4908 16.984C79.1094 17.5173 79.8454 17.784 80.6988 17.784C81.5734 17.784 82.3094 17.5173 82.9068 16.984C83.5254 16.4507 83.8348 15.768 83.8348 14.936C83.8348 14.0827 83.5254 13.3893 82.9068 12.856C82.3094 12.3227 81.5734 12.056 80.6988 12.056C79.8454 12.056 79.1094 12.3227 78.4908 12.856C77.8934 13.3893 77.5948 14.0827 77.5948 14.936ZM78.0428 20.28V35H83.3548V20.28H78.0428ZM86.5308 36.088C86.6801 37.3893 87.0534 38.5413 87.6508 39.544C88.2481 40.568 89.1441 41.3573 90.3388 41.912C91.5334 42.4667 93.1121 42.744 95.0748 42.744C96.6534 42.744 98.0614 42.4773 99.2988 41.944C100.557 41.4107 101.56 40.5467 102.307 39.352C103.053 38.1787 103.427 36.6213 103.427 34.68V20.28H98.1468V34.68C98.1468 35.4907 97.9974 36.1733 97.6988 36.728C97.4214 37.2827 97.0268 37.6987 96.5148 37.976C96.0241 38.2747 95.4481 38.424 94.7868 38.424C94.2748 38.424 93.8054 38.3493 93.3788 38.2C92.9521 38.0507 92.6108 37.8053 92.3548 37.464C92.0988 37.1227 91.9281 36.664 91.8428 36.088H86.5308ZM86.2108 27.384C86.2108 29.048 86.5414 30.4347 87.2028 31.544C87.8854 32.632 88.7494 33.4533 89.7948 34.008C90.8614 34.5413 91.9708 34.808 93.1228 34.808C94.3601 34.808 95.4588 34.52 96.4188 33.944C97.3788 33.368 98.1361 32.5253 98.6908 31.416C99.2668 30.3067 99.5548 28.9627 99.5548 27.384C99.5548 25.784 99.2668 24.44 98.6908 23.352C98.1361 22.2427 97.3788 21.4 96.4188 20.824C95.4588 20.248 94.3601 19.96 93.1228 19.96C91.9708 19.96 90.8614 20.2373 89.7948 20.792C88.7494 21.3253 87.8854 22.136 87.2028 23.224C86.5414 24.312 86.2108 25.6987 86.2108 27.384ZM92.0348 27.384C92.0348 26.7227 92.1734 26.168 92.4508 25.72C92.7281 25.2507 93.1014 24.8987 93.5708 24.664C94.0401 24.4293 94.5521 24.312 95.1068 24.312C95.4694 24.312 95.8321 24.376 96.1948 24.504C96.5574 24.6107 96.8881 24.792 97.1868 25.048C97.4854 25.304 97.7201 25.624 97.8908 26.008C98.0614 26.392 98.1468 26.8507 98.1468 27.384C98.1468 28.088 97.9974 28.664 97.6988 29.112C97.4001 29.56 97.0161 29.9013 96.5468 30.136C96.0774 30.3493 95.5974 30.456 95.1068 30.456C94.5521 30.456 94.0401 30.3387 93.5708 30.104C93.1014 29.8693 92.7281 29.5173 92.4508 29.048C92.1734 28.5787 92.0348 28.024 92.0348 27.384ZM105.509 20.28V24.76H116.357V20.28H105.509ZM115.717 15.16L117.829 11.192C117.594 10.9787 117.285 10.7333 116.901 10.456C116.517 10.1787 116.037 9.944 115.461 9.752C114.906 9.56 114.213 9.464 113.381 9.464C112.058 9.464 110.96 9.688 110.085 10.136C109.21 10.584 108.549 11.2133 108.101 12.024C107.674 12.8133 107.461 13.752 107.461 14.84V35H112.741V16.312C112.741 15.864 112.805 15.5013 112.933 15.224C113.061 14.9253 113.232 14.712 113.445 14.584C113.68 14.4347 113.957 14.36 114.277 14.36C114.554 14.36 114.81 14.4347 115.045 14.584C115.28 14.712 115.504 14.904 115.717 15.16ZM118.448 10.04V35H123.984V10.04H118.448ZM127.095 14.936C127.095 15.768 127.393 16.4507 127.991 16.984C128.609 17.5173 129.345 17.784 130.199 17.784C131.073 17.784 131.809 17.5173 132.407 16.984C133.025 16.4507 133.335 15.768 133.335 14.936C133.335 14.0827 133.025 13.3893 132.407 12.856C131.809 12.3227 131.073 12.056 130.199 12.056C129.345 12.056 128.609 12.3227 127.991 12.856C127.393 13.3893 127.095 14.0827 127.095 14.936ZM127.543 20.28V35H132.855V20.28H127.543ZM146.367 20.28L143.871 23.768L141.407 20.28H135.039L140.959 27.448L134.719 35H141.087L143.871 31.096L146.687 35H152.799L146.655 27.448L152.479 20.28H146.367Z" fill="#D62D30"/>
</svg>
